<svg width="14" height="14" viewBox="0 0 14 14" fill="none" xmlns="http://www.w3.org/2000/svg">
<g id="ep:arrow-right-bold">
<path id="Vector" d="M4.67001 1.54062C4.50863 1.70205 4.41797 1.92097 4.41797 2.14923C4.41797 2.37749 4.50863 2.59641 4.67001 2.75784L8.93117 7.019L4.67001 11.2802C4.5132 11.4425 4.42643 11.66 4.4284 11.8857C4.43036 12.1114 4.52089 12.3273 4.6805 12.4869C4.8401 12.6465 5.05601 12.737 5.28172 12.739C5.50743 12.741 5.72488 12.6542 5.88724 12.4974L10.757 7.62762C10.9184 7.46618 11.0091 7.24727 11.0091 7.019C11.0091 6.79074 10.9184 6.57182 10.757 6.41039L5.88724 1.54062C5.72581 1.37923 5.50689 1.28857 5.27862 1.28857C5.05036 1.28857 4.83144 1.37923 4.67001 1.54062V1.54062Z" fill="#32CD32"/>
</g>
</svg>
