<svg width="128" height="128" viewBox="0 0 128 128" fill="none" xmlns="http://www.w3.org/2000/svg">
<g id="ep:food">
<path id="Vector" d="M16.3662 43.8015V43.7301C16.3661 36.6741 18.4558 29.7762 22.3717 23.9066C26.2876 18.0369 31.8542 13.4586 38.3692 10.7491C44.8843 8.03971 52.0558 7.32057 58.9791 8.68247C65.9024 10.0444 72.2672 13.4263 77.2706 18.4015C81.2073 16.4585 85.6044 15.6416 89.9763 16.041C94.3481 16.4404 98.5244 18.0405 102.044 20.6647C105.563 23.2889 108.289 26.8349 109.919 30.9109C111.55 34.987 112.022 39.4344 111.283 43.7618C112.369 43.8626 113.423 44.1862 114.378 44.7124C115.334 45.2386 116.17 45.9561 116.836 46.82C117.502 47.684 117.983 48.676 118.248 49.734C118.514 50.792 118.558 51.8934 118.379 52.9693C114.791 74.5514 105.917 88.2119 91.7724 93.9586V99.2926C91.7724 102.45 90.518 105.479 88.2852 107.712C86.0523 109.944 83.0239 111.199 79.8662 111.199H48.1162C44.9584 111.199 41.93 109.944 39.6972 107.712C37.4643 105.479 36.2099 102.45 36.2099 99.2926V93.9586C22.0653 88.2119 13.1912 74.5514 9.60342 52.9693C9.43027 51.9219 9.46899 50.8505 9.71728 49.8183C9.96557 48.7861 10.4184 47.8142 11.049 46.9602C11.6795 46.1061 12.475 45.3872 13.3883 44.846C14.3016 44.3048 15.3142 43.9524 16.3662 43.8095V43.8015ZM24.3037 43.7301H32.2412C32.2412 38.4672 34.3318 33.4199 38.0533 29.6984C41.7747 25.977 46.822 23.8863 52.0849 23.8863C57.3478 23.8863 62.3951 25.977 66.1166 29.6984C69.838 33.4199 71.9287 38.4672 71.9287 43.7301H79.8662C79.8662 36.362 76.9392 29.2958 71.7292 24.0858C66.5192 18.8758 59.453 15.9488 52.0849 15.9488C44.7169 15.9488 37.6506 18.8758 32.4406 24.0858C27.2306 29.2958 24.3037 36.362 24.3037 43.7301V43.7301ZM40.1787 43.7301H63.9912C63.9912 40.5724 62.7368 37.544 60.5039 35.3111C58.2711 33.0782 55.2427 31.8238 52.0849 31.8238C48.9272 31.8238 45.8988 33.0782 43.6659 35.3111C41.4331 37.544 40.1787 40.5724 40.1787 43.7301ZM94.6776 43.7301H103.179C103.778 41.3843 103.834 38.9327 103.342 36.5621C102.85 34.1915 101.824 31.9644 100.341 30.0506C98.8581 28.1367 96.9579 26.5866 94.7853 25.5184C92.6126 24.4501 90.2248 23.8919 87.8037 23.8863C85.8987 23.8863 84.0889 24.2197 82.4062 24.8309C83.8111 27.0851 84.97 29.514 85.859 32.062C87.3708 31.687 88.9594 31.7642 90.4278 32.284C91.8961 32.8038 93.1795 33.7433 94.1187 34.986C95.0578 36.2286 95.6114 37.7197 95.7108 39.2741C95.8101 40.8286 95.4509 42.378 94.6776 43.7301V43.7301ZM83.8349 95.3239H44.1474V99.2926C44.1474 100.345 44.5656 101.355 45.3098 102.099C46.0541 102.843 47.0636 103.261 48.1162 103.261H79.8662C80.9188 103.261 81.9282 102.843 82.6725 102.099C83.4168 101.355 83.8349 100.345 83.8349 99.2926V95.3239ZM41.3534 87.3864H86.6289C99.2178 83.3382 107.187 71.8924 110.553 51.6676H17.4298C20.7953 71.8924 28.7645 83.3382 41.3534 87.3864Z" fill="#32CD32"/>
</g>
</svg>
