<svg width="15" height="16" viewBox="0 0 15 16" fill="none" xmlns="http://www.w3.org/2000/svg">
<g id="icon">
<path id="Vector" d="M5.58377 5.67653L5.58256 5.67713L5.58076 5.67834L5.58377 5.67653ZM11.5799 5.56389C11.538 5.52345 11.4915 5.48807 11.4414 5.45847C11.3704 5.41667 11.2916 5.38988 11.2098 5.37975C11.1281 5.36962 11.0451 5.37637 10.9661 5.39958C10.887 5.42278 10.8136 5.46195 10.7503 5.51466C10.687 5.56738 10.6352 5.63251 10.598 5.70605C10.3906 6.11502 10.1044 6.479 9.75589 6.77709C9.80932 6.47683 9.83633 6.17246 9.83661 5.86749C9.83776 4.9399 9.59309 4.02857 9.1275 3.22628C8.66192 2.424 7.99206 1.75942 7.18611 1.3002C7.0973 1.24973 6.99711 1.22269 6.89497 1.22159C6.79283 1.2205 6.69209 1.2454 6.60221 1.29395C6.51234 1.3425 6.43629 1.41311 6.38121 1.49913C6.32613 1.58516 6.29384 1.68378 6.28735 1.78572C6.25363 2.35684 6.10431 2.91517 5.84845 3.42689C5.5926 3.93861 5.23552 4.39306 4.79886 4.76271L4.66031 4.87536C4.20347 5.18272 3.79911 5.56166 3.46277 5.9976C2.94006 6.65608 2.57798 7.42729 2.40523 8.25007C2.23248 9.07285 2.25382 9.92457 2.46756 10.7377C2.6813 11.5508 3.08156 12.3029 3.63658 12.9343C4.19161 13.5658 4.88614 14.0593 5.66509 14.3756C5.75654 14.4128 5.85574 14.427 5.95396 14.4169C6.05218 14.4067 6.1464 14.3726 6.22834 14.3175C6.31028 14.2624 6.37741 14.188 6.42384 14.1009C6.47026 14.0137 6.49455 13.9165 6.49457 13.8178C6.49407 13.754 6.48392 13.6906 6.46446 13.6298C6.32968 13.1233 6.29086 12.5959 6.35 12.0751C6.92014 13.1501 7.83521 14.0021 8.94809 14.4943C9.08387 14.555 9.23735 14.5631 9.3788 14.5171C10.258 14.2333 11.05 13.7294 11.6796 13.0534C12.3091 12.3773 12.7554 11.5514 12.976 10.6543C13.1965 9.75717 13.184 8.81855 12.9397 7.9276C12.6954 7.03666 12.2273 6.22299 11.5799 5.56389V5.56389ZM9.2276 13.2931C8.70249 13.027 8.23926 12.6534 7.86803 12.1966C7.4968 11.7397 7.22587 11.2098 7.07286 10.6414C7.02609 10.45 6.98989 10.2561 6.96444 10.0607C6.94729 9.93626 6.89168 9.8203 6.80538 9.72903C6.71908 9.63776 6.60641 9.57575 6.48313 9.55168C6.44522 9.54432 6.40669 9.54069 6.36807 9.54084C6.26223 9.54073 6.15823 9.56852 6.06655 9.62139C5.97486 9.67427 5.89873 9.75037 5.84581 9.84203C5.34609 10.7042 5.09486 11.6879 5.11993 12.6841C4.68028 12.3424 4.31284 11.9168 4.0389 11.432C3.76496 10.9472 3.58997 10.4128 3.52407 9.85989C3.45818 9.30696 3.50269 8.74645 3.65503 8.21085C3.80737 7.67526 4.0645 7.17522 4.41152 6.73974C4.67502 6.39749 4.99288 6.10079 5.35245 5.86146C5.36819 5.85137 5.38328 5.84031 5.39763 5.82833C5.39763 5.82833 5.57594 5.68075 5.58196 5.67774C6.44048 4.95189 7.05116 3.97628 7.32888 2.88688C7.98514 3.49371 8.42267 4.30024 8.57353 5.18123C8.72439 6.06222 8.58014 6.96838 8.16318 7.75898C8.108 7.8645 8.08534 7.98402 8.09805 8.10242C8.11076 8.22082 8.15828 8.3328 8.2346 8.4242C8.31092 8.51561 8.41263 8.58234 8.52686 8.61598C8.64109 8.64961 8.76273 8.64863 8.87641 8.61316C9.7991 8.32379 10.611 7.7587 11.2028 6.99395C11.5586 7.51937 11.7913 8.11833 11.8834 8.74617C11.9756 9.37402 11.9248 10.0146 11.7349 10.6201C11.5451 11.2256 11.221 11.7804 10.7869 12.2432C10.3527 12.7061 9.81973 13.0649 9.2276 13.2931V13.2931Z" fill="url(#paint0_linear_1_1000)"/>
</g>
<defs>
<linearGradient id="paint0_linear_1_1000" x1="7.54597" y1="-8.32339e-05" x2="14.4183" y2="10.4852" gradientUnits="userSpaceOnUse">
<stop stop-color="#5AFF15"/>
<stop offset="0.594922" stop-color="#2BD913"/>
<stop offset="1" stop-color="#32CD32"/>
</linearGradient>
</defs>
</svg>
