<svg width="18" height="18" viewBox="0 0 18 18" fill="none" xmlns="http://www.w3.org/2000/svg">
<g id="icon">
<path id="Vector" d="M1.93871 5.7365C2.13819 5.53708 2.40871 5.42505 2.69078 5.42505C2.97285 5.42505 3.24337 5.53708 3.44285 5.7365L8.70842 11.0021L13.974 5.7365C14.1746 5.54273 14.4433 5.43551 14.7222 5.43793C15.0011 5.44036 15.2679 5.55223 15.4652 5.74946C15.6624 5.94669 15.7743 6.21349 15.7767 6.4924C15.7791 6.77131 15.6719 7.04002 15.4781 7.24064L9.46049 13.2583C9.26101 13.4577 8.99049 13.5697 8.70842 13.5697C8.42635 13.5697 8.15583 13.4577 7.95635 13.2583L1.93871 7.24064C1.73929 7.04116 1.62726 6.77064 1.62726 6.48857C1.62726 6.2065 1.73929 5.93598 1.93871 5.7365V5.7365Z" fill="#32CD32"/>
</g>
</svg>
