<svg width="43" height="43" viewBox="0 0 43 43" fill="none" xmlns="http://www.w3.org/2000/svg">
<g id="icon">
<g id="Vector">
<path d="M33.0314 17.1292C33.0314 13.9963 31.7868 10.9917 29.5716 8.77645C27.3563 6.56118 24.3517 5.31665 21.2189 5.31665C18.086 5.31665 15.0814 6.56118 12.8662 8.77645C10.6509 10.9917 9.40637 13.9963 9.40637 17.1292C9.40637 21.9749 13.2835 28.2906 21.2189 35.8559C29.1542 28.2906 33.0314 21.9749 33.0314 17.1292ZM21.2189 39.4416C11.593 30.6925 6.78137 23.2533 6.78137 17.1292C6.78137 13.3001 8.30246 9.62785 11.01 6.9203C13.7176 4.21274 17.3898 2.69165 21.2189 2.69165C25.0479 2.69165 28.7202 4.21274 31.4277 6.9203C34.1353 9.62785 35.6564 13.3001 35.6564 17.1292C35.6564 23.2533 30.8447 30.6925 21.2189 39.4416Z" fill="#32CD32"/>
<path d="M33.0314 17.1292C33.0314 13.9963 31.7868 10.9917 29.5716 8.77645C27.3563 6.56118 24.3517 5.31665 21.2189 5.31665C18.086 5.31665 15.0814 6.56118 12.8662 8.77645C10.6509 10.9917 9.40637 13.9963 9.40637 17.1292C9.40637 21.9749 13.2835 28.2906 21.2189 35.8559C29.1542 28.2906 33.0314 21.9749 33.0314 17.1292Z" fill="white"/>
</g>
<g id="Vector_2">
<path d="M21.2056 21.1003C22.2499 21.1003 23.2514 20.6855 23.9899 19.9471C24.7283 19.2087 25.1431 18.2071 25.1431 17.1628C25.1431 16.1186 24.7283 15.117 23.9899 14.3786C23.2514 13.6402 22.2499 13.2253 21.2056 13.2253C20.1613 13.2253 19.1598 13.6402 18.4214 14.3786C17.683 15.117 17.2681 16.1186 17.2681 17.1628C17.2681 18.2071 17.683 19.2087 18.4214 19.9471C19.1598 20.6855 20.1613 21.1003 21.2056 21.1003ZM21.2056 23.7253C19.4651 23.7253 17.7959 23.0339 16.5652 21.8032C15.3345 20.5725 14.6431 18.9033 14.6431 17.1628C14.6431 15.4224 15.3345 13.7532 16.5652 12.5225C17.7959 11.2917 19.4651 10.6003 21.2056 10.6003C22.9461 10.6003 24.6153 11.2917 25.846 12.5225C27.0767 13.7532 27.7681 15.4224 27.7681 17.1628C27.7681 18.9033 27.0767 20.5725 25.846 21.8032C24.6153 23.0339 22.9461 23.7253 21.2056 23.7253Z" fill="#32CD32"/>
<path d="M21.2056 21.1003C22.2499 21.1003 23.2514 20.6855 23.9899 19.9471C24.7283 19.2087 25.1431 18.2071 25.1431 17.1628C25.1431 16.1186 24.7283 15.117 23.9899 14.3786C23.2514 13.6402 22.2499 13.2253 21.2056 13.2253C20.1613 13.2253 19.1598 13.6402 18.4214 14.3786C17.683 15.117 17.2681 16.1186 17.2681 17.1628C17.2681 18.2071 17.683 19.2087 18.4214 19.9471C19.1598 20.6855 20.1613 21.1003 21.2056 21.1003Z" fill="white"/>
</g>
</g>
</svg>
