<svg width="16" height="19" viewBox="0 0 16 19" fill="none" xmlns="http://www.w3.org/2000/svg">
<path d="M13.6995 7.5031C13.6995 5.91098 13.067 4.38408 11.9412 3.25829C10.8154 2.13249 9.28854 1.50003 7.69643 1.50003C6.10432 1.50003 4.57741 2.13249 3.45162 3.25829C2.32582 4.38408 1.69336 5.91098 1.69336 7.5031C1.69336 9.96569 3.6637 13.1753 7.69643 17.02C11.7292 13.1753 13.6995 9.96569 13.6995 7.5031ZM7.69643 18.8422C2.80459 14.396 0.359344 10.6154 0.359344 7.5031C0.359344 5.55718 1.13236 3.69097 2.50833 2.315C3.8843 0.939028 5.75051 0.166016 7.69643 0.166016C9.64234 0.166016 11.5086 0.939028 12.8845 2.315C14.2605 3.69097 15.0335 5.55718 15.0335 7.5031C15.0335 10.6154 12.5883 14.396 7.69643 18.8422Z" fill="#32CD32"/>
<path d="M7.69942 9.53821C8.23012 9.53821 8.73909 9.32739 9.11435 8.95212C9.48962 8.57686 9.70044 8.06789 9.70044 7.53719C9.70044 7.00648 9.48962 6.49751 9.11435 6.12225C8.73909 5.74698 8.23012 5.53616 7.69942 5.53616C7.16871 5.53616 6.65974 5.74698 6.28448 6.12225C5.90922 6.49751 5.69839 7.00648 5.69839 7.53719C5.69839 8.06789 5.90922 8.57686 6.28448 8.95212C6.65974 9.32739 7.16871 9.53821 7.69942 9.53821V9.53821ZM7.69942 10.8722C6.81491 10.8722 5.96663 10.5209 5.34119 9.89541C4.71575 9.26997 4.36438 8.42169 4.36438 7.53719C4.36438 6.65268 4.71575 5.8044 5.34119 5.17896C5.96663 4.55352 6.81491 4.20215 7.69942 4.20215C8.58392 4.20215 9.4322 4.55352 10.0576 5.17896C10.6831 5.8044 11.0345 6.65268 11.0345 7.53719C11.0345 8.42169 10.6831 9.26997 10.0576 9.89541C9.4322 10.5209 8.58392 10.8722 7.69942 10.8722Z" fill="#32CD32"/>
</svg>
