<svg width="57" height="57" viewBox="0 0 57 57" fill="none" xmlns="http://www.w3.org/2000/svg">
<g id="icon">
<g id="vuesax/linear/empty-wallet">
<g id="Group">
<path id="Vector" d="M42.1137 31.6651C41.1337 32.6218 40.5737 33.9985 40.7137 35.4685C40.9237 37.9885 43.2337 39.8318 45.7537 39.8318H50.187V42.6085C50.187 47.4385 46.2437 51.3818 41.4137 51.3818H14.627C9.79703 51.3818 5.85369 47.4385 5.85369 42.6085V26.9052C5.85369 22.0752 9.79703 18.1318 14.627 18.1318H41.4137C46.2437 18.1318 50.187 22.0752 50.187 26.9052V30.2652H45.4737C44.167 30.2652 42.977 30.7785 42.1137 31.6651Z" stroke="#32CD32" stroke-width="3.4375" stroke-linecap="round" stroke-linejoin="round"/>
<path id="Vector_2" d="M5.85369 29.0081V18.3448C5.85369 15.5682 7.55703 13.0947 10.147 12.1147L28.6737 5.11474C31.567 4.01808 34.6704 6.16481 34.6704 9.26815V18.1348" stroke="#32CD32" stroke-width="3.4375" stroke-linecap="round" stroke-linejoin="round"/>
</g>
<path id="Vector_3" d="M52.6589 32.6489V37.4557C52.6589 38.7391 51.6322 39.789 50.3256 39.8356H45.7522C43.2322 39.8356 40.9222 37.9923 40.7122 35.4723C40.5722 34.0023 41.1322 32.6257 42.1122 31.669C42.9756 30.7823 44.1656 30.269 45.4722 30.269H50.3256C51.6322 30.3157 52.6589 31.3656 52.6589 32.6489Z" stroke="#32CD32" stroke-width="3.4375" stroke-linecap="round" stroke-linejoin="round"/>
<path id="Vector_4" d="M16.355 28.0452H32.6884" stroke="#32CD32" stroke-width="3.4375" stroke-linecap="round" stroke-linejoin="round"/>
</g>
</g>
</svg>
