<svg width="18" height="17" viewBox="0 0 18 17" fill="none" xmlns="http://www.w3.org/2000/svg">
<path d="M11.9269 11.6878L13.3423 10.2724C13.533 10.0841 13.7742 9.9552 14.0367 9.90136C14.2991 9.84752 14.5716 9.87104 14.821 9.96906L16.5461 10.6578C16.7981 10.7601 17.0142 10.9347 17.1671 11.1596C17.32 11.3845 17.403 11.6497 17.4055 11.9216V15.0811C17.404 15.2661 17.3651 15.4489 17.2911 15.6185C17.2171 15.7881 17.1096 15.941 16.975 16.0679C16.8404 16.1948 16.6815 16.2932 16.5079 16.3571C16.3343 16.421 16.1495 16.4491 15.9647 16.4397C3.87643 15.6878 1.43729 5.45096 0.976006 1.53316C0.954592 1.34077 0.974157 1.14603 1.03341 0.961741C1.09267 0.777454 1.19027 0.607802 1.3198 0.463945C1.44933 0.320088 1.60786 0.205288 1.78494 0.127096C1.96202 0.0489034 2.15366 0.00909174 2.34723 0.0102797H5.39932C5.67167 0.0110859 5.93756 0.0933542 6.16278 0.246503C6.388 0.399652 6.56225 0.616678 6.66312 0.869667L7.35189 2.59476C7.45316 2.84314 7.47899 3.11585 7.42617 3.37883C7.37335 3.64181 7.24422 3.88339 7.0549 4.07341L5.63944 5.48887C5.63944 5.48887 6.45459 11.0054 11.9269 11.6878Z" fill="#32CD32"/>
</svg>
