<svg width="17" height="17" viewBox="0 0 17 17" fill="none" xmlns="http://www.w3.org/2000/svg">
<g id="eva:search-outline">
<path id="Vector" d="M13.852 13.1239L11.585 10.8636C12.3165 9.93171 12.7133 8.781 12.7119 7.59638C12.7119 6.54138 12.399 5.51007 11.8129 4.63287C11.2268 3.75567 10.3937 3.07198 9.41899 2.66825C8.4443 2.26452 7.37177 2.15888 6.33705 2.3647C5.30232 2.57052 4.35186 3.07855 3.60586 3.82455C2.85987 4.57055 2.35184 5.52101 2.14602 6.55573C1.94019 7.59046 2.04583 8.66298 2.44956 9.63768C2.85329 10.6124 3.53698 11.4455 4.41418 12.0316C5.29138 12.6177 6.32269 12.9305 7.37769 12.9305C8.56231 12.932 9.71303 12.5351 10.6449 11.8037L12.9052 14.0707C12.9672 14.1332 13.041 14.1828 13.1222 14.2167C13.2035 14.2505 13.2906 14.268 13.3786 14.268C13.4667 14.268 13.5538 14.2505 13.6351 14.2167C13.7163 14.1828 13.7901 14.1332 13.852 14.0707C13.9145 14.0087 13.9641 13.935 13.998 13.8537C14.0318 13.7725 14.0493 13.6853 14.0493 13.5973C14.0493 13.5093 14.0318 13.4221 13.998 13.3409C13.9641 13.2596 13.9145 13.1859 13.852 13.1239ZM3.37706 7.59638C3.37706 6.80513 3.6117 6.03165 4.05129 5.37375C4.49088 4.71585 5.1157 4.20308 5.84672 3.90028C6.57774 3.59748 7.38213 3.51826 8.15817 3.67262C8.93422 3.82699 9.64706 4.20801 10.2066 4.76751C10.7661 5.32701 11.1471 6.03985 11.3014 6.8159C11.4558 7.59194 11.3766 8.39633 11.0738 9.12735C10.771 9.85837 10.2582 10.4832 9.60032 10.9228C8.94242 11.3624 8.16894 11.597 7.37769 11.597C6.31666 11.597 5.29908 11.1755 4.54882 10.4252C3.79856 9.67499 3.37706 8.65741 3.37706 7.59638Z" fill="#D2D2D2"/>
</g>
</svg>
