<svg width="27" height="27" viewBox="0 0 27 27" fill="none" xmlns="http://www.w3.org/2000/svg">
<g id="icon">
<path id="Vector" d="M2.81433 5.0095C2.81433 4.79201 2.90073 4.58343 3.05452 4.42964C3.20831 4.27585 3.41689 4.18945 3.63438 4.18945H4.24449C5.28322 4.18945 5.90645 4.88813 6.26181 5.53761C6.49907 5.97059 6.67074 6.47246 6.80522 6.92731C6.8416 6.92444 6.87807 6.92298 6.91456 6.92294H20.5798C21.4873 6.92294 22.1434 7.7911 21.8941 8.66472L19.8953 15.6723C19.7161 16.3008 19.337 16.8539 18.8154 17.2477C18.2937 17.6414 17.658 17.8546 17.0044 17.8547H10.5009C9.84212 17.8547 9.20157 17.6384 8.67769 17.239C8.15381 16.8395 7.77561 16.2791 7.60121 15.6439L6.77023 12.613L5.39256 7.96822L5.39146 7.95948C5.22089 7.33952 5.06126 6.75893 4.8229 6.32595C4.59438 5.90499 4.41069 5.82955 4.24559 5.82955H3.63438C3.41689 5.82955 3.20831 5.74315 3.05452 5.58936C2.90073 5.43557 2.81433 5.22699 2.81433 5.0095ZM8.36112 12.215L9.18226 15.2098C9.34627 15.8024 9.88532 16.2146 10.5009 16.2146H17.0044C17.3015 16.2146 17.5905 16.1178 17.8276 15.9389C18.0648 15.7599 18.2372 15.5086 18.3187 15.2229L20.2179 8.56303H7.28085L8.34582 12.157L8.36112 12.215ZM12.1082 21.1371C12.1082 21.717 11.8778 22.2733 11.4677 22.6834C11.0576 23.0935 10.5014 23.3239 9.9214 23.3239C9.34143 23.3239 8.78521 23.0935 8.3751 22.6834C7.965 22.2733 7.73461 21.717 7.73461 21.1371C7.73461 20.5571 7.965 20.0009 8.3751 19.5908C8.78521 19.1807 9.34143 18.9503 9.9214 18.9503C10.5014 18.9503 11.0576 19.1807 11.4677 19.5908C11.8778 20.0009 12.1082 20.5571 12.1082 21.1371ZM10.4681 21.1371C10.4681 20.9921 10.4105 20.853 10.308 20.7505C10.2054 20.648 10.0664 20.5904 9.9214 20.5904C9.77641 20.5904 9.63735 20.648 9.53482 20.7505C9.4323 20.853 9.3747 20.9921 9.3747 21.1371C9.3747 21.2821 9.4323 21.4211 9.53482 21.5236C9.63735 21.6262 9.77641 21.6838 9.9214 21.6838C10.0664 21.6838 10.2054 21.6262 10.308 21.5236C10.4105 21.4211 10.4681 21.2821 10.4681 21.1371ZM19.762 21.1371C19.762 21.717 19.5316 22.2733 19.1215 22.6834C18.7114 23.0935 18.1551 23.3239 17.5752 23.3239C16.9952 23.3239 16.439 23.0935 16.0289 22.6834C15.6188 22.2733 15.3884 21.717 15.3884 21.1371C15.3884 20.5571 15.6188 20.0009 16.0289 19.5908C16.439 19.1807 16.9952 18.9503 17.5752 18.9503C18.1551 18.9503 18.7114 19.1807 19.1215 19.5908C19.5316 20.0009 19.762 20.5571 19.762 21.1371ZM18.1219 21.1371C18.1219 20.9921 18.0643 20.853 17.9617 20.7505C17.8592 20.648 17.7202 20.5904 17.5752 20.5904C17.4302 20.5904 17.2911 20.648 17.1886 20.7505C17.0861 20.853 17.0285 20.9921 17.0285 21.1371C17.0285 21.2821 17.0861 21.4211 17.1886 21.5236C17.2911 21.6262 17.4302 21.6838 17.5752 21.6838C17.7202 21.6838 17.8592 21.6262 17.9617 21.5236C18.0643 21.4211 18.1219 21.2821 18.1219 21.1371Z" fill="#32CD32"/>
</g>
</svg>
