<svg width="9" height="9" viewBox="0 0 9 9" fill="none" xmlns="http://www.w3.org/2000/svg">
<g id="fluent:cart-24-regular" clip-path="url(#clip0_1_774)">
<path id="Vector" d="M0.972366 1.62642C0.972366 1.56006 0.998726 1.49642 1.04565 1.4495C1.09257 1.40258 1.15621 1.37622 1.22256 1.37622H1.40871C1.72562 1.37622 1.91577 1.58939 2.02418 1.78754C2.09657 1.91964 2.14895 2.07276 2.18998 2.21154C2.20108 2.21066 2.21221 2.21022 2.22334 2.2102H6.39258C6.66947 2.2102 6.86962 2.47508 6.79356 2.74162L6.18376 4.87961C6.12908 5.07138 6.01341 5.24011 5.85426 5.36026C5.69511 5.4804 5.50114 5.54542 5.30174 5.54546H3.31752C3.11653 5.54547 2.9211 5.47947 2.76127 5.35761C2.60143 5.23574 2.48604 5.06476 2.43284 4.87094L2.17931 3.94622L1.75898 2.52912L1.75864 2.52645C1.7066 2.3373 1.6579 2.16016 1.58518 2.02806C1.51546 1.89963 1.45941 1.87661 1.40904 1.87661H1.22256C1.15621 1.87661 1.09257 1.85025 1.04565 1.80333C0.998726 1.75641 0.972366 1.69277 0.972366 1.62642ZM2.66468 3.82479L2.91521 4.7385C2.96525 4.91931 3.12971 5.04507 3.31752 5.04507H5.30174C5.39237 5.04507 5.48055 5.01554 5.5529 4.96094C5.62525 4.90635 5.67784 4.82967 5.70271 4.74251L6.28217 2.71059H2.33509L2.66001 3.80711L2.66468 3.82479ZM3.80791 6.54691C3.80791 6.72386 3.73761 6.89356 3.61249 7.01868C3.48737 7.1438 3.31767 7.21409 3.14072 7.21409C2.96377 7.21409 2.79407 7.1438 2.66895 7.01868C2.54383 6.89356 2.47353 6.72386 2.47353 6.54691C2.47353 6.36996 2.54383 6.20026 2.66895 6.07514C2.79407 5.95002 2.96377 5.87972 3.14072 5.87972C3.31767 5.87972 3.48737 5.95002 3.61249 6.07514C3.73761 6.20026 3.80791 6.36996 3.80791 6.54691ZM3.30752 6.54691C3.30752 6.50267 3.28994 6.46025 3.25866 6.42897C3.22738 6.39769 3.18496 6.38011 3.14072 6.38011C3.09648 6.38011 3.05406 6.39769 3.02278 6.42897C2.9915 6.46025 2.97392 6.50267 2.97392 6.54691C2.97392 6.59115 2.9915 6.63357 3.02278 6.66485C3.05406 6.69613 3.09648 6.71371 3.14072 6.71371C3.18496 6.71371 3.22738 6.69613 3.25866 6.66485C3.28994 6.63357 3.30752 6.59115 3.30752 6.54691ZM6.14306 6.54691C6.14306 6.72386 6.07276 6.89356 5.94764 7.01868C5.82252 7.1438 5.65282 7.21409 5.47587 7.21409C5.29892 7.21409 5.12922 7.1438 5.0041 7.01868C4.87898 6.89356 4.80869 6.72386 4.80869 6.54691C4.80869 6.36996 4.87898 6.20026 5.0041 6.07514C5.12922 5.95002 5.29892 5.87972 5.47587 5.87972C5.65282 5.87972 5.82252 5.95002 5.94764 6.07514C6.07276 6.20026 6.14306 6.36996 6.14306 6.54691ZM5.64267 6.54691C5.64267 6.50267 5.62509 6.46025 5.59381 6.42897C5.56253 6.39769 5.52011 6.38011 5.47587 6.38011C5.43163 6.38011 5.38921 6.39769 5.35793 6.42897C5.32665 6.46025 5.30907 6.50267 5.30907 6.54691C5.30907 6.59115 5.32665 6.63357 5.35793 6.66485C5.38921 6.69613 5.43163 6.71371 5.47587 6.71371C5.52011 6.71371 5.56253 6.69613 5.59381 6.66485C5.62509 6.63357 5.64267 6.59115 5.64267 6.54691Z" fill="#32CD32"/>
</g>
<defs>
<clipPath id="clip0_1_774">
<rect width="8.00623" height="8.00623" fill="white" transform="translate(0.125641 0.185303)"/>
</clipPath>
</defs>
</svg>
