<svg width="46" height="46" viewBox="0 0 46 46" fill="none" xmlns="http://www.w3.org/2000/svg">
<g clip-path="url(#clip0_1_1197)">
<path fill-rule="evenodd" clip-rule="evenodd" d="M45.4258 22.5547C45.4258 34.9803 35.3515 45.0547 22.9258 45.0547C10.5002 45.0547 0.425838 34.9803 0.425838 22.5547C0.425838 10.1291 10.5002 0.0546875 22.9258 0.0546875C35.3515 0.0546875 45.4258 10.1291 45.4258 22.5547ZM23.7321 16.6653C21.544 17.5747 17.1696 19.4591 10.6108 22.3166C9.54584 22.7403 8.98709 23.1547 8.93646 23.5597C8.85021 24.2459 9.70896 24.5159 10.8752 24.8816C11.0346 24.9322 11.1996 24.9828 11.3683 25.0391C12.5177 25.4122 14.0627 25.8491 14.8652 25.8659C15.5946 25.8809 16.4083 25.5809 17.3065 24.9659C23.434 20.8278 26.5971 18.7372 26.7958 18.6922C26.9365 18.6603 27.1315 18.6191 27.2627 18.7372C27.394 18.8534 27.3808 19.0747 27.3677 19.1347C27.2815 19.4966 23.9177 22.6259 22.174 24.2459C21.6302 24.7503 21.2458 25.1084 21.1671 25.1909C20.9908 25.3728 20.8108 25.5472 20.6383 25.7141C19.5696 26.7416 18.7708 27.5141 20.6833 28.7741C21.6021 29.3797 22.3371 29.8803 23.0702 30.3791C23.8708 30.9247 24.6696 31.4684 25.7046 32.1472C25.9671 32.3197 26.2183 32.4978 26.464 32.6722C27.3958 33.3378 28.234 33.9341 29.269 33.8403C29.869 33.7841 30.4915 33.2197 30.8065 31.5341C31.5508 27.5478 33.0171 18.9153 33.3565 15.3566C33.3771 15.0611 33.3645 14.7642 33.319 14.4716C33.2917 14.2352 33.1766 14.0177 32.9965 13.8622C32.7283 13.6428 32.3121 13.5959 32.1246 13.5997C31.279 13.6147 29.9815 14.0666 23.7321 16.6653Z" fill="white"/>
</g>
<defs>
<clipPath id="clip0_1_1197">
<rect width="45" height="45" fill="white" transform="translate(0.428223 0.0625)"/>
</clipPath>
</defs>
</svg>
