<svg width="58" height="58" viewBox="0 0 58 58" fill="none" xmlns="http://www.w3.org/2000/svg">
<g id="emojione-monotone:deciduous-tree">
<path id="Vector" d="M44.769 14.8013C44.3631 8.07182 38.3726 2.72534 31.0222 2.72534C26.6519 2.72534 22.764 4.61913 20.2377 7.56462C19.0137 7.2291 17.7504 7.05853 16.4813 7.05742C9.13085 7.05742 3.17235 12.5904 3.17235 19.4132C3.17235 21.8639 3.95047 24.1423 5.27577 26.0637C3.49568 28.2506 2.42621 30.9651 2.42621 33.9177C2.42621 41.126 8.71958 46.9681 16.4821 46.9681C19.8549 46.9681 22.931 45.8454 25.3506 44.0049C25.4092 44.3913 25.4634 44.7865 25.5229 45.1703C26.1003 48.9401 26.6057 52.5615 26.3455 56.0213L32.5633 55.9547C32.3102 52.0917 31.3242 48.4773 30.3276 45.0584C32.0106 45.894 33.8643 46.3285 35.7433 46.3277C42.0385 46.3277 47.1487 41.6598 47.3041 35.8497C52.1603 34.5733 55.7222 30.4357 55.7222 25.5192C55.7222 19.7774 50.8705 15.1024 44.769 14.8013ZM46.6264 33.2728L44.6935 33.7809L44.6393 35.7786C44.5229 40.1267 40.532 43.6629 35.7424 43.6629C33.2171 43.6629 30.8321 42.6814 29.1355 40.9723C28.4489 38.5651 27.8306 36.1792 27.4371 33.7649C28.8584 33.6965 30.2423 33.5233 31.6306 33.2675C33.5644 32.9042 35.4626 32.3597 37.2596 31.5833C39.0539 30.8106 40.7443 29.7997 42.1966 28.5339C43.6371 27.2861 44.829 25.7774 45.7097 24.0873C44.7133 25.6857 43.4251 27.0823 41.9123 28.2044C40.4067 29.3272 38.7048 30.1737 36.9291 30.7857C35.1517 31.3995 33.297 31.785 31.4272 31.9937C30.0246 32.1515 28.6126 32.2094 27.2017 32.1669C26.8074 28.9008 26.882 25.5822 27.5908 22.3178C28.3743 18.6706 29.903 15.1327 31.9096 11.8487C29.4775 14.8502 27.4318 18.2158 26.0932 21.9137C25.316 24.0446 24.8079 26.2786 24.5236 28.5464C23.8701 28.1835 23.2323 27.7929 22.6121 27.3756C21.47 26.611 20.4018 25.7415 19.4214 24.7783C17.4779 22.8623 15.9323 20.456 15.4677 17.7148C15.6312 20.488 16.9423 23.1493 18.7534 25.3459C19.6688 26.4539 20.6861 27.4733 21.7922 28.3909C22.6094 29.0704 23.4444 29.7011 24.3504 30.2856C24.2695 31.3744 24.2387 32.4663 24.258 33.558C24.2838 35.3771 24.4348 37.1812 24.6426 38.9666C23.9828 38.9219 23.3254 38.8466 22.6725 38.741C21.3099 38.5243 19.9754 38.1582 18.693 37.6493C16.1304 36.6367 13.8173 34.925 12.2176 32.6368C13.558 35.0707 15.736 37.0924 18.3093 38.4239C19.6042 39.0971 20.9694 39.6253 22.3802 39.9988C23.1921 40.2111 24.004 40.3834 24.8354 40.5078C24.8532 40.6357 24.8736 40.7591 24.8914 40.8871C22.7275 43.0571 19.6808 44.3042 16.4839 44.3042C10.2012 44.3042 5.09101 39.6444 5.09101 33.9177C5.09101 31.6891 5.86913 29.5554 7.34276 27.7469L8.60499 26.1969L7.46979 24.5509C6.40209 23.0027 5.83804 21.2262 5.83804 19.4132C5.83804 14.0694 10.6134 9.72222 16.4821 9.72222C17.5036 9.72222 18.5314 9.86168 19.5369 10.1353L21.1642 10.5794L22.2612 9.2994C24.3913 6.81492 27.5846 5.39014 31.0222 5.39014C36.9149 5.39014 41.7844 9.59431 42.1086 14.9612L42.2516 17.3444L44.6375 17.4626C49.3587 17.6962 53.0574 21.2342 53.0574 25.5192C53.0574 29.0891 50.4121 32.2771 46.6264 33.2728Z" fill="#32CD32"/>
</g>
</svg>
