<svg width="57" height="57" viewBox="0 0 57 57" fill="none" xmlns="http://www.w3.org/2000/svg">
<g id="icon">
<g id="vuesax/linear/truck-time">
<g id="truck-time">
<path id="Vector" d="M35.5205 4.73291V28.0662C35.5205 30.6329 33.4205 32.7329 30.8539 32.7329H5.1872V17.8462C6.89054 19.8762 9.50393 21.1362 12.3973 21.0662C14.7539 21.0196 16.8772 20.1096 18.4639 18.5929C19.1872 17.9862 19.7939 17.2162 20.2606 16.3762C21.1006 14.9529 21.5672 13.2728 21.5205 11.5228C21.4505 8.79285 20.2372 6.38958 18.3472 4.73291H35.5205Z" stroke="#32CD32" stroke-width="3.5" stroke-linecap="round" stroke-linejoin="round"/>
<path id="Vector_2" d="M51.8539 32.7329V39.7329C51.8539 43.6062 48.7272 46.7329 44.8539 46.7329H42.5205C42.5205 44.1662 40.4205 42.0662 37.8539 42.0662C35.2872 42.0662 33.1872 44.1662 33.1872 46.7329H23.8539C23.8539 44.1662 21.7539 42.0662 19.1872 42.0662C16.6205 42.0662 14.5205 44.1662 14.5205 46.7329H12.1872C8.31387 46.7329 5.1872 43.6062 5.1872 39.7329V32.7329H30.8539C33.4205 32.7329 35.5205 30.6329 35.5205 28.0662V11.7329H39.8139C41.4939 11.7329 43.0339 12.6429 43.8739 14.0896L47.8638 21.0662H44.8539C43.5705 21.0662 42.5205 22.1162 42.5205 23.3996V30.3996C42.5205 31.6829 43.5705 32.7329 44.8539 32.7329H51.8539Z" stroke="#32CD32" stroke-width="3.5" stroke-linecap="round" stroke-linejoin="round"/>
<path id="Vector_3" d="M19.188 51.398C21.7653 51.398 23.8547 49.3087 23.8547 46.7314C23.8547 44.154 21.7653 42.0647 19.188 42.0647C16.6107 42.0647 14.5213 44.154 14.5213 46.7314C14.5213 49.3087 16.6107 51.398 19.188 51.398Z" stroke="#32CD32" stroke-width="3.5" stroke-linecap="round" stroke-linejoin="round"/>
<path id="Vector_4" d="M37.8539 51.398C40.4312 51.398 42.5205 49.3087 42.5205 46.7314C42.5205 44.154 40.4312 42.0647 37.8539 42.0647C35.2765 42.0647 33.1872 44.154 33.1872 46.7314C33.1872 49.3087 35.2765 51.398 37.8539 51.398Z" stroke="#32CD32" stroke-width="3.5" stroke-linecap="round" stroke-linejoin="round"/>
<path id="Vector_5" d="M51.8547 28.0647V32.7314H44.8547C43.5713 32.7314 42.5213 31.6814 42.5213 30.398V23.398C42.5213 22.1147 43.5713 21.0647 44.8547 21.0647H47.8646L51.8547 28.0647Z" stroke="#32CD32" stroke-width="3.5" stroke-linecap="round" stroke-linejoin="round"/>
<g id="Group">
<path id="Vector_6" d="M21.5194 11.7352C21.5194 14.5352 20.2828 17.0319 18.3461 18.7352C16.6895 20.1819 14.5428 21.0685 12.1861 21.0685C7.02944 21.0685 2.85277 16.8919 2.85277 11.7352C2.85277 8.79519 4.2061 6.15853 6.35277 4.4552C7.96277 3.17187 9.99277 2.40186 12.1861 2.40186C17.3428 2.40186 21.5194 6.57852 21.5194 11.7352Z" stroke="#32CD32" stroke-width="3.5" stroke-miterlimit="10" stroke-linecap="round" stroke-linejoin="round"/>
<path id="Vector_7" d="M12.7694 8.82007V12.3201L9.85277 14.0701" stroke="#32CD32" stroke-width="3.5" stroke-miterlimit="10" stroke-linecap="round" stroke-linejoin="round"/>
</g>
</g>
</g>
</g>
</svg>
