<svg width="128" height="128" viewBox="0 0 128 128" fill="none" xmlns="http://www.w3.org/2000/svg">
<g id="vuesax/linear/truck-tick">
<g id="vuesax/linear/truck-tick_2">
<g id="truck-tick">
<path id="Vector" d="M79.9162 10.6689V63.5856C79.9162 69.4064 75.1537 74.1689 69.3328 74.1689H11.1245V40.4081C14.9874 45.0118 20.9142 47.8693 27.4759 47.7106C32.8205 47.6047 37.6358 45.541 41.2341 42.1014C42.8745 40.7256 44.2505 38.9793 45.3088 37.0743C47.2138 33.8464 48.272 30.0363 48.1662 26.0675C48.0074 19.8763 45.2558 14.426 40.9696 10.6689H79.9162Z" stroke="#32CD32" stroke-width="7.9375" stroke-linecap="round" stroke-linejoin="round"/>
<path id="Vector_2" d="M116.958 74.1689V90.0439C116.958 98.8281 109.867 105.919 101.083 105.919H95.7912C95.7912 100.098 91.0287 95.3356 85.2078 95.3356C79.387 95.3356 74.6245 100.098 74.6245 105.919H53.4578C53.4578 100.098 48.6953 95.3356 42.8745 95.3356C37.0537 95.3356 32.2912 100.098 32.2912 105.919H26.9995C18.2153 105.919 11.1245 98.8281 11.1245 90.0439V74.1689H69.3328C75.1537 74.1689 79.9162 69.4064 79.9162 63.5856V26.5439H89.653C93.463 26.5439 96.9554 28.6077 98.8604 31.8886L107.909 47.7106H101.083C98.1724 47.7106 95.7912 50.0919 95.7912 53.0023V68.8773C95.7912 71.7877 98.1724 74.1689 101.083 74.1689H116.958Z" stroke="#32CD32" stroke-width="7.9375" stroke-linecap="round" stroke-linejoin="round"/>
<path id="Vector_3" d="M42.8745 116.502C48.7195 116.502 53.4579 111.764 53.4579 105.919C53.4579 100.074 48.7195 95.3356 42.8745 95.3356C37.0295 95.3356 32.2912 100.074 32.2912 105.919C32.2912 111.764 37.0295 116.502 42.8745 116.502Z" stroke="#32CD32" stroke-width="7.9375" stroke-linecap="round" stroke-linejoin="round"/>
<path id="Vector_4" d="M85.2078 116.502C91.0529 116.502 95.7912 111.764 95.7912 105.919C95.7912 100.074 91.0529 95.3356 85.2078 95.3356C79.3628 95.3356 74.6245 100.074 74.6245 105.919C74.6245 111.764 79.3628 116.502 85.2078 116.502Z" stroke="#32CD32" stroke-width="7.9375" stroke-linecap="round" stroke-linejoin="round"/>
<path id="Vector_5" d="M116.958 63.5856V74.1689H101.083C98.1724 74.1689 95.7912 71.7877 95.7912 68.8773V53.0023C95.7912 50.0919 98.1724 47.7106 101.083 47.7106H107.909L116.958 63.5856Z" stroke="#32CD32" stroke-width="7.9375" stroke-linecap="round" stroke-linejoin="round"/>
<g id="Group">
<path id="Vector_6" d="M48.1696 26.0686C48.2754 30.0374 47.2172 33.8475 45.3122 37.0754C44.2539 38.9804 42.878 40.7267 41.2375 42.1026C37.6392 45.5421 32.8239 47.6059 27.4793 47.7117C20.9177 47.8705 14.9909 45.0129 11.1279 40.4092C10.3871 39.6154 9.75214 38.7159 9.17005 37.8163C7.1063 34.6942 5.94211 30.9902 5.83628 27.0214C5.67753 20.3539 8.64082 14.2683 13.4033 10.2996C17.0017 7.33625 21.5524 5.4842 26.5266 5.37837C32.0828 5.27254 37.163 7.28337 40.973 10.67C45.2593 14.4271 48.0109 19.8774 48.1696 26.0686Z" stroke="#32CD32" stroke-width="7.9375" stroke-miterlimit="10" stroke-linecap="round" stroke-linejoin="round"/>
<path id="Vector_7" d="M18.7437 26.6954L24.0883 31.7752L35.1477 21.0859" stroke="#32CD32" stroke-width="7.9375" stroke-linecap="round" stroke-linejoin="round"/>
</g>
</g>
</g>
</g>
</svg>
