<svg width="58" height="58" viewBox="0 0 58 58" fill="none" xmlns="http://www.w3.org/2000/svg">
<g id="icon">
<path id="Vector" d="M29.1684 34.1042H31.5371C34.1427 34.1042 36.2745 31.9724 36.2745 29.3668V5.67969H14.9561C11.403 5.67969 8.30005 7.64569 6.68933 10.5355" stroke="#32CD32" stroke-width="3.55307" stroke-linecap="round" stroke-linejoin="round"/>
<path id="Vector_2" d="M5.47577 41.2099C5.47577 45.142 8.64984 48.3161 12.5819 48.3161H14.9506C14.9506 45.7105 17.0825 43.5787 19.688 43.5787C22.2936 43.5787 24.4255 45.7105 24.4255 48.3161H33.9003C33.9003 45.7105 36.0321 43.5787 38.6377 43.5787C41.2433 43.5787 43.3751 45.7105 43.3751 48.3161H45.7439C49.6759 48.3161 52.85 45.142 52.85 41.2099V34.1038H45.7439C44.4411 34.1038 43.3751 33.0379 43.3751 31.7351V24.629C43.3751 23.3262 44.4411 22.2602 45.7439 22.2602H48.7994L44.749 15.1778C43.8963 13.7092 42.333 12.7854 40.6275 12.7854H36.269V29.3664C36.269 31.972 34.1372 34.1038 31.5316 34.1038H29.1629" stroke="#32CD32" stroke-width="3.55307" stroke-linecap="round" stroke-linejoin="round"/>
<path id="Vector_3" d="M19.6876 53.0517C22.304 53.0517 24.425 50.9307 24.425 48.3143C24.425 45.6979 22.304 43.5769 19.6876 43.5769C17.0712 43.5769 14.9501 45.6979 14.9501 48.3143C14.9501 50.9307 17.0712 53.0517 19.6876 53.0517Z" fill="#D9D9D9" stroke="#32CD32" stroke-width="3.55307" stroke-linecap="round" stroke-linejoin="round"/>
<path id="Vector_4" d="M38.6402 53.0517C41.2566 53.0517 43.3776 50.9307 43.3776 48.3143C43.3776 45.6979 41.2566 43.5769 38.6402 43.5769C36.0238 43.5769 33.9028 45.6979 33.9028 48.3143C33.9028 50.9307 36.0238 53.0517 38.6402 53.0517Z" stroke="#32CD32" stroke-width="3.55307" stroke-linecap="round" stroke-linejoin="round"/>
<path id="Vector_5" d="M52.8481 29.3698V34.1072H45.7419C44.4392 34.1072 43.3732 33.0413 43.3732 31.7385V24.6324C43.3732 23.3296 44.4392 22.2637 45.7419 22.2637H48.7975L52.8481 29.3698Z" stroke="#32CD32" stroke-width="3.55307" stroke-linecap="round" stroke-linejoin="round"/>
<path id="Vector_6" d="M5.47577 19.895H19.688" stroke="#32CD32" stroke-width="3.55307" stroke-linecap="round" stroke-linejoin="round"/>
<path id="Vector_7" d="M5.47577 26.9968H14.9506" stroke="#32CD32" stroke-width="3.55307" stroke-linecap="round" stroke-linejoin="round"/>
<path id="Vector_8" d="M5.47577 34.1064H10.2132" stroke="#32CD32" stroke-width="3.55307" stroke-linecap="round" stroke-linejoin="round"/>
</g>
</svg>
