<svg width="21" height="20" viewBox="0 0 21 20" fill="none" xmlns="http://www.w3.org/2000/svg">
<path d="M14.0219 10.4866C14.9598 9.74864 15.6445 8.73668 15.9805 7.59151C16.3166 6.44633 16.2873 5.22489 15.8968 4.09711C15.5064 2.96933 14.7741 1.9913 13.8019 1.29907C12.8297 0.60685 11.6659 0.234863 10.4724 0.234863C9.27897 0.234863 8.11519 0.60685 7.14298 1.29907C6.17078 1.9913 5.4385 2.96933 5.04803 4.09711C4.65757 5.22489 4.62832 6.44633 4.96437 7.59151C5.30041 8.73668 5.98504 9.74864 6.923 10.4866C5.31579 11.1305 3.91344 12.1985 2.86545 13.5767C1.81746 14.9549 1.16313 16.5917 0.972201 18.3126C0.958381 18.4382 0.969443 18.5653 1.00475 18.6867C1.04007 18.8081 1.09894 18.9213 1.178 19.0199C1.33769 19.2191 1.56994 19.3466 1.82368 19.3745C2.07742 19.4024 2.33185 19.3284 2.53101 19.1687C2.73017 19.009 2.85773 18.7768 2.88564 18.5231C3.09572 16.6528 3.98748 14.9256 5.39055 13.6713C6.79361 12.417 8.60961 11.7237 10.4916 11.7237C12.3735 11.7237 14.1895 12.417 15.5926 13.6713C16.9957 14.9256 17.8874 16.6528 18.0975 18.5231C18.1235 18.7581 18.2357 18.9753 18.4124 19.1325C18.589 19.2897 18.8177 19.376 19.0542 19.3745H19.1595C19.4102 19.3457 19.6395 19.2189 19.7972 19.0217C19.9549 18.8246 20.0283 18.5731 20.0014 18.3221C19.8095 16.5964 19.1517 14.9554 18.0983 13.5751C17.0449 12.1947 15.6358 11.1271 14.0219 10.4866V10.4866ZM10.4724 9.80733C9.71555 9.80733 8.97566 9.58288 8.34633 9.16238C7.71701 8.74188 7.22651 8.1442 6.93686 7.44493C6.64721 6.74566 6.57143 5.9762 6.71909 5.23386C6.86675 4.49151 7.23122 3.80963 7.76642 3.27443C8.30162 2.73923 8.98351 2.37476 9.72585 2.22709C10.4682 2.07943 11.2377 2.15522 11.9369 2.44487C12.6362 2.73451 13.2339 3.22502 13.6544 3.85434C14.0749 4.48367 14.2993 5.22356 14.2993 5.98044C14.2993 6.9954 13.8961 7.96878 13.1785 8.68646C12.4608 9.40414 11.4874 9.80733 10.4724 9.80733Z" fill="#32CD32"/>
</svg>
