<svg width="52" height="52" viewBox="0 0 52 52" fill="none" xmlns="http://www.w3.org/2000/svg">
<path id="icon" fill-rule="evenodd" clip-rule="evenodd" d="M14.7829 1.05799C13.2996 1.4543 12.2075 2.5904 11.8126 4.14762L11.6382 4.83538L11.1895 4.71876C10.0021 4.41026 8.63262 4.67999 7.6252 5.42057C6.72487 6.08251 6.11686 7.14017 5.95618 8.32401L5.88851 8.82238H4.7717C3.72267 8.82238 3.61388 8.84172 2.98202 9.14065C1.72479 9.73541 0.831747 10.9425 0.603995 12.3548C0.347 13.9488 1.17268 15.6753 2.61624 16.5625C3.01855 16.8097 3.11985 16.9327 3.20508 17.2772C3.36936 17.9415 3.94623 19.05 4.38596 19.5463C4.96023 20.1944 5.77773 20.7253 6.66428 21.0256L7.42768 21.2843L7.59366 21.8811C8.05625 23.5437 9.12525 24.8674 10.6242 25.6338C11.5601 26.1122 13.2617 26.3438 14.2163 26.1225L14.5979 26.0341L14.5158 26.4488C14.4705 26.6769 14.4375 27.3794 14.4423 28.0098C14.4497 28.9842 14.4919 29.2756 14.7241 29.9525C15.3918 31.8995 16.7378 33.4036 18.7738 34.4776L19.6675 34.949L18.0985 35.5804C12.9484 37.6528 8.19118 40.0741 5.40137 42.0428C4.00491 43.0283 2.51833 44.5357 2.10475 45.3856C0.66727 48.3396 3.25558 50.3227 9.79274 51.2763C16.1287 52.2006 28.9039 52.0988 32.876 51.0925C35.5919 50.4045 37.9205 48.5489 39.174 46.0737L39.4402 45.5482L40.0596 46.0488C42.5499 48.0611 45.4079 47.9597 46.1271 45.8335L46.3064 45.3035L47.071 45.2401C49.2335 45.0606 50.3648 43.3123 49.5332 41.4348L49.3362 40.99L49.5594 40.8885C49.6821 40.8326 50.0574 40.5327 50.3933 40.2221C52.4928 38.2809 51.6495 35.7339 48.6913 35.0819L48.1174 34.9554V34.3202C48.1174 33.6769 47.9421 33.0963 47.6504 32.7745C47.5019 32.6107 47.5374 32.5067 48.1446 31.3255C49.2067 29.2595 49.8953 26.9692 49.9423 25.3466C49.9634 24.6198 49.9575 24.6005 49.6253 24.3032C49.331 24.04 49.2331 24.0076 48.8769 24.0553C48.2507 24.1392 48.075 24.4147 47.938 25.5277C47.7128 27.3571 47.1313 29.0861 46.1559 30.8257L45.611 31.7975L45.1925 31.8008C44.9623 31.8026 44.5283 31.8887 44.228 31.9923L43.6818 32.1806L43.3439 31.7862C42.2207 30.4757 40.2794 30.7232 38.7184 32.3759C38.3398 32.7767 37.9161 33.3663 37.6864 33.8119L37.2967 34.5681L36.7937 34.1415C35.6647 33.1841 34.3129 32.4922 32.7651 32.0798C31.944 31.8609 29.8167 31.7736 28.9745 31.9242L28.5449 32.0009L28.1525 31.1648C27.179 29.0901 26.7217 27.0214 26.7169 24.6707C26.7106 21.6379 27.4512 19.6112 29.1511 18.0097C30.4868 16.7513 32.1048 16.1857 34.095 16.2816C35.2719 16.3383 35.9395 16.5084 37.0396 17.0317C37.9962 17.4867 38.5503 17.5647 39.6028 17.3925C41.3377 17.1084 42.5657 17.2481 44.093 17.9033C45.1429 18.3536 45.4756 18.3619 45.8469 17.9471C46.4948 17.2233 46.0653 16.5305 44.6128 15.9561C43.3685 15.4641 42.0862 15.2293 40.8578 15.2686C39.8947 15.2994 39.8393 15.2905 39.8957 15.1135C40.0548 14.6138 40.7344 13.651 41.4909 12.8538C42.2162 12.0896 42.3288 11.9237 42.3288 11.6193C42.3288 11.3721 42.2429 11.1715 42.0396 10.9444C41.4129 10.2438 40.6148 10.6303 39.3336 12.2547L38.7064 13.0499L38.4763 12.3921C37.839 10.5707 36.1663 9.13038 34.2644 8.76557C33.4899 8.61695 32.3675 8.69311 31.6997 8.9395C30.9722 9.20783 30.8014 9.59307 30.8014 10.9654C30.8014 12.1979 30.9625 12.8119 31.5327 13.7533L31.9234 14.3983L31.1129 14.6313C29.1335 15.2001 27.4317 16.5138 26.2978 18.3484C25.9391 18.9288 25.9221 18.9414 25.5715 18.8835C24.9315 18.7778 24.9321 18.7787 25.1988 18.3176C26.6484 15.8108 25.7482 12.281 23.259 10.7116L22.867 10.4645L22.8658 9.59357C22.8645 8.6023 22.7244 7.98352 22.3086 7.13259C21.9662 6.43178 21.1119 5.4746 20.5193 5.12773C20.1377 4.90445 20.0915 4.83468 20.0329 4.39362C19.9974 4.12559 19.8101 3.59073 19.617 3.20519C18.7301 1.43446 16.7182 0.540875 14.7829 1.05799ZM16.8907 3.17011C17.5878 3.53382 17.9282 4.03279 18.1202 4.97163C18.297 5.83711 18.5872 6.26671 19.2841 6.69492C20.4188 7.39224 20.871 8.30756 20.871 9.90685C20.871 11.2565 21.0473 11.6192 22.0252 12.2812C23.2835 13.133 23.8864 14.1922 23.8864 15.5505C23.8864 16.0729 23.8221 16.4678 23.6727 16.8615C23.4406 17.4728 22.8785 18.2749 22.5644 18.4427C22.3775 18.5426 22.3679 18.5126 22.3656 17.8216C22.3624 16.8897 22.2393 16.3691 21.8114 15.4791C21.2138 14.2361 20.0827 13.1827 18.7798 12.6556L18.1318 12.3934L18.0107 11.8041C17.7398 10.4872 17.3044 9.69335 16.3885 8.84641C16.0734 8.55506 15.564 8.18516 15.2564 8.02428C14.8032 7.78736 14.6861 7.67373 14.6395 7.42544C14.6079 7.25699 14.4256 6.87683 14.2346 6.58059C13.7777 5.8724 13.652 5.46423 13.7087 4.87415C13.7782 4.15201 14.214 3.51279 14.8708 3.17021C15.5852 2.79742 16.1763 2.79742 16.8907 3.17011ZM11.0403 6.76868C11.5754 7.01607 11.9036 7.38786 12.3306 8.23061C12.7278 9.01426 13.0158 9.27242 13.8337 9.57812C14.9666 10.0014 15.7717 10.8865 15.9805 11.938C16.326 13.6788 16.4728 13.8547 18.1937 14.5922C18.9348 14.9097 19.5646 15.5011 19.9837 16.2729C20.31 16.8738 20.322 16.9351 20.322 17.9925C20.322 19.0507 20.3103 19.1107 19.9821 19.715C19.7952 20.0594 19.6072 20.3285 19.5645 20.313C19.5218 20.2977 18.3345 18.6479 16.9262 16.6469C15.5179 14.6459 14.2351 12.8752 14.0756 12.712C13.2707 11.8884 11.9712 12.8889 12.5594 13.8793C12.6657 14.0583 13.9067 15.8386 15.3173 17.8355C17.1459 20.4244 17.851 21.497 17.7745 21.5733C17.7128 21.635 17.2564 21.6805 16.6992 21.6805C15.8202 21.6805 15.67 21.6516 15.0673 21.3664C14.2263 20.9685 13.6484 20.3923 13.261 19.5655C13.0106 19.0312 12.9445 18.7358 12.8897 17.9058C12.7977 16.5107 12.5461 16.1012 11.4092 15.4957C10.3151 14.9132 9.80541 14.0736 9.69064 12.6648C9.64802 12.1413 9.56578 11.592 9.5078 11.4441C9.44991 11.2963 9.11347 10.8608 8.76017 10.4764C8.25586 9.92748 8.09198 9.66942 7.99727 9.27491C7.6721 7.92142 8.73811 6.58408 10.142 6.58408C10.4175 6.58408 10.8199 6.66681 11.0403 6.76868ZM34.7216 11.0133C35.8422 11.5156 36.6977 12.7086 36.7599 13.856L36.7897 14.4042L36.0411 14.3973C35.4315 14.3917 35.1947 14.3402 34.7651 14.1197C33.6059 13.5249 32.8656 12.4737 32.7702 11.2874L32.718 10.6375L33.4109 10.687C33.8673 10.7196 34.3147 10.831 34.7216 11.0133ZM5.57922 10.9208C6.11796 11.1455 7.69656 12.8011 7.69805 13.1431C7.69985 13.55 7.95575 14.4191 8.25156 15.0229C8.61575 15.7664 9.5572 16.7462 10.2737 17.1276L10.8607 17.4401L10.9198 18.3143C11.0739 20.5977 12.4001 22.4506 14.483 23.2926C14.8662 23.4475 15.1802 23.6024 15.1809 23.6368C15.1815 23.6712 14.9464 23.8039 14.6582 23.9315C14.2324 24.1203 13.9565 24.1647 13.1861 24.1682C12.3627 24.1718 12.1634 24.1375 11.6715 23.9072C10.5501 23.3821 9.81469 22.4798 9.49422 21.2355C9.17305 19.9884 8.80847 19.598 7.64146 19.2514C6.17145 18.8147 5.42023 18.0256 5.09956 16.5812C4.95085 15.9112 4.59146 15.4098 4.03126 15.0912C2.7911 14.3855 2.31683 13.4436 2.64828 12.3443C2.84339 11.6974 3.11396 11.3591 3.7047 11.0236C4.23516 10.7223 5.00235 10.6802 5.57922 10.9208ZM25.105 20.8422C25.1325 20.8696 25.0585 21.3386 24.9406 21.8843C24.6524 23.2185 24.6344 25.8707 24.9029 27.4118C25.13 28.7151 25.6306 30.3901 26.1515 31.5894C26.4205 32.2088 26.5106 32.518 26.4298 32.544C26.3641 32.5651 25.7264 32.7721 25.0128 33.0042C23.8046 33.3969 23.6399 33.4258 22.6175 33.4241C21.6874 33.4226 21.3977 33.3808 20.7213 33.1508C19.554 32.7538 18.9233 32.3583 18.0183 31.4557C16.3135 29.7556 15.9164 27.715 16.8892 25.6534C17.3251 24.7295 17.9212 24.1487 19.8041 22.8131C21.7434 21.4374 22.4283 21.0502 23.2457 20.8674C23.7794 20.7481 24.9943 20.7317 25.105 20.8422ZM41.7726 33.0504C41.9297 33.2073 41.967 33.3249 42.0773 34.011C42.2095 34.8341 43.0406 35.0284 43.8761 34.4315C44.1503 34.2356 44.5262 34.0113 44.7113 33.9331C45.1215 33.7599 45.8382 33.7475 46.0016 33.9106C46.1687 34.0776 46.1512 34.9223 45.9716 35.3513C45.7519 35.8765 45.7824 36.3255 46.0596 36.6473C46.2846 36.9086 46.3544 36.9263 47.382 36.9821C49.521 37.0981 50.1679 37.8388 48.9943 38.8281C48.6622 39.1081 47.5657 39.6716 47.3528 39.6717C47.289 39.6718 47.1207 39.8099 46.9786 39.9785C46.5898 40.4399 46.6305 40.8521 47.1208 41.4178C47.8757 42.2889 47.9852 42.7149 47.5435 43.0638C47.2941 43.2608 47.1917 43.2752 46.4207 43.2209C45.9542 43.188 45.387 43.1343 45.1602 43.1016C44.8017 43.0498 44.7059 43.0798 44.4233 43.332C44.0701 43.6472 44.0461 43.7879 44.177 44.7775C44.2516 45.3416 44.2492 45.3491 43.9643 45.4596C43.6154 45.5948 42.9165 45.4599 42.2389 45.1263C41.717 44.8694 40.5844 43.8493 40.3775 43.4497C40.2765 43.2546 40.2256 42.6942 40.2005 41.4986C40.1694 40.0191 40.1332 39.7156 39.8931 38.9243C39.7435 38.4309 39.4534 37.6908 39.2487 37.2796C38.9175 36.6144 38.8851 36.4833 38.954 36.0891C39.0679 35.4379 39.6581 34.2673 40.1308 33.7551C40.5133 33.3409 41.2225 32.8942 41.4983 32.894C41.563 32.8939 41.6865 32.9643 41.7726 33.0504ZM32.5453 34.092C37.8719 35.5946 39.9746 41.925 36.627 46.3798C36.1927 46.9579 34.9649 48.0993 34.8744 48.0091C34.8583 47.9928 34.7333 47.3874 34.5967 46.6636C34.4602 45.9398 34.3023 45.2614 34.2459 45.1562C33.9434 44.5916 33.1992 44.4882 32.7399 44.9469C32.3694 45.317 32.3673 45.5494 32.7173 47.4639C32.8653 48.2734 32.9645 48.9577 32.9376 48.9844C32.5926 49.329 28.1992 49.7836 24.4682 49.8607L23.1251 49.8885L22.8479 48.3934C22.5216 46.6336 22.4753 46.5103 22.0608 46.2962C21.5061 46.0098 20.8135 46.3048 20.632 46.905C20.5977 47.0183 20.6824 47.7082 20.8202 48.4384C20.9579 49.1684 21.0706 49.8045 21.0706 49.8521C21.0706 50.033 16.1292 49.9004 13.0364 49.6365C8.44938 49.245 5.1285 48.4143 4.03485 47.3849C3.65041 47.0231 3.62635 46.7944 3.91359 46.2323C4.48796 45.1077 6.4531 43.5649 9.53973 41.8148C10.1829 41.45 10.72 41.1664 10.7334 41.1843C10.7469 41.2022 10.8358 41.6653 10.9312 42.2136C11.2303 43.9338 11.2999 44.1761 11.5655 44.4219C12.1422 44.9557 13.1871 44.5166 13.1853 43.7413C13.1849 43.5589 13.0513 42.6946 12.8886 41.8205C12.7258 40.9465 12.6055 40.2185 12.6214 40.2026C12.6371 40.1868 13.2564 39.8861 13.9974 39.5345C17.7893 37.7351 24.4207 35.1347 24.5115 35.4118C24.5338 35.4797 24.6459 36.0511 24.7607 36.6816C25.0178 38.0931 25.1152 38.3465 25.471 38.5303C26.071 38.8401 26.7599 38.5566 26.916 37.9355C26.9521 37.7921 26.8652 37.0673 26.7205 36.3038C26.5771 35.5483 26.46 34.8594 26.46 34.7729C26.46 34.6095 27.6261 34.2303 29.0335 33.936C29.942 33.7461 31.5763 33.8186 32.5453 34.092Z" fill="#32CD32"/>
</svg>
