<svg width="46" height="46" viewBox="0 0 46 46" fill="none" xmlns="http://www.w3.org/2000/svg">
<g clip-path="url(#clip0_1_1199)">
<path d="M22.4842 0.952393C10.5547 0.952393 0.88418 10.6229 0.88418 22.5524C0.88418 34.4819 10.5547 44.1524 22.4842 44.1524C34.4137 44.1524 44.0842 34.4819 44.0842 22.5524C44.0842 10.6229 34.4137 0.952393 22.4842 0.952393ZM30.7912 25.3222C30.7912 25.3222 32.7014 27.2077 33.1717 28.0829C33.1852 28.1009 33.1919 28.1189 33.1964 28.1279C33.3877 28.4497 33.4327 28.6994 33.3382 28.8862C33.1807 29.1967 32.6407 29.3497 32.4562 29.3632H29.0812C28.8472 29.3632 28.3567 29.3024 27.7627 28.8929C27.3059 28.5734 26.8559 28.0492 26.4172 27.5384C25.7624 26.7779 25.1954 26.1209 24.6239 26.1209C24.5514 26.1208 24.4792 26.1322 24.4102 26.1547C23.9782 26.2942 23.4247 26.9107 23.4247 28.5532C23.4247 29.0662 23.0197 29.3609 22.7339 29.3609H21.1882C20.6617 29.3609 17.9189 29.1764 15.4889 26.6137C12.5144 23.4749 9.83693 17.1794 9.81443 17.1209C9.64568 16.7136 9.99443 16.4954 10.3747 16.4954H13.7834C14.2379 16.4954 14.3864 16.7721 14.4899 17.0174C14.6114 17.3031 15.0569 18.4394 15.7882 19.7174C16.9739 21.8009 17.7007 22.6469 18.2834 22.6469C18.3927 22.6456 18.5 22.6178 18.5962 22.5659C19.3567 22.1429 19.2149 19.4316 19.1812 18.8691C19.1812 18.7634 19.1789 17.6564 18.7897 17.1254C18.5107 16.7406 18.0359 16.5944 17.7479 16.5404C17.8645 16.3795 18.0181 16.2491 18.1957 16.1601C18.7177 15.8991 19.6582 15.8609 20.5919 15.8609H21.1117C22.1242 15.8744 22.3852 15.9396 22.7519 16.0319C23.4944 16.2096 23.5102 16.6889 23.4449 18.3291C23.4247 18.7949 23.4044 19.3214 23.4044 19.9424C23.4044 20.0774 23.3977 20.2214 23.3977 20.3744C23.3752 21.2091 23.3482 22.1564 23.9377 22.5457C24.0146 22.5939 24.1034 22.6196 24.1942 22.6199C24.3989 22.6199 25.0154 22.6199 26.6849 19.7556C27.1998 18.8337 27.6472 17.8757 28.0237 16.8891C28.0574 16.8306 28.1564 16.6506 28.2734 16.5809C28.3598 16.5369 28.4555 16.5145 28.5524 16.5156H32.5597C32.9962 16.5156 33.2954 16.5809 33.3517 16.7496C33.4507 17.0174 33.3337 17.8341 31.5044 20.3114L30.6877 21.3891C29.0294 23.5627 29.0294 23.6729 30.7912 25.3222Z" fill="white"/>
</g>
<defs>
<clipPath id="clip0_1_1199">
<rect width="45" height="45" fill="white" transform="translate(0.00146484 0.0625)"/>
</clipPath>
</defs>
</svg>
