<svg width="58" height="58" viewBox="0 0 58 58" fill="none" xmlns="http://www.w3.org/2000/svg">
<g id="icon">
<path id="free-icon-female-waist-reduction-30650 1 (Traced)" fill-rule="evenodd" clip-rule="evenodd" d="M9.21273 6.06777C8.97839 6.12971 8.74681 6.30758 8.60175 6.53713C8.3969 6.86143 8.37567 7.03447 8.42926 7.94302C8.49743 9.10105 8.90885 10.6762 9.42148 11.742C9.77276 12.4723 10.6383 13.8287 11.4661 14.9459C13.4383 17.6076 13.5472 21.9 11.7674 26.8256C11.4728 27.641 10.6754 29.4764 9.99528 30.9043C7.67552 35.7753 6.84282 38.4164 6.54237 41.8562C6.40948 43.3778 6.45837 44.4909 6.73161 46.164C7.07165 48.2468 8.19297 51.9066 8.64318 52.4031C9.37466 53.2099 10.6803 52.7201 10.6803 51.6389C10.6803 51.4063 10.5248 50.7885 10.3347 50.266C9.45752 47.8548 8.90908 44.9263 8.98069 43.0355L9.01626 42.0944L9.81958 42.4401C10.8169 42.8693 13.2312 43.7047 14.7543 44.1479C21.1392 46.005 29.0463 46.5016 35.9276 45.4773C39.7797 44.9039 44.4925 43.6514 47.6815 42.3537C48.0554 42.2016 48.4298 42.0771 48.5136 42.0771C48.7072 42.0771 48.7212 43.7432 48.5404 45.243C48.3918 46.4761 47.7925 48.89 47.2988 50.2441C46.8402 51.5021 46.836 52.0017 47.28 52.4471C47.5406 52.7086 47.7194 52.7836 48.0815 52.7836C48.794 52.7836 49.1382 52.384 49.6185 50.9992C51.484 45.6196 51.616 41.7999 50.1052 36.9064C49.5557 35.1265 49.0156 33.8166 47.6199 30.8783C46.9348 29.4361 46.1374 27.6007 45.848 26.7996C44.0722 21.8852 44.1843 17.6106 46.1588 14.9459C46.9866 13.8287 47.8521 12.4723 48.2034 11.742C49.0154 10.0536 49.4723 7.40401 49.0818 6.64684C48.8562 6.20903 48.5409 6.02046 48.0343 6.02046C47.5627 6.02046 47.117 6.30838 46.9656 6.71108C46.9012 6.88204 46.8188 7.39077 46.7824 7.8416C46.6174 9.88573 45.8217 11.5709 44.3155 13.066C43.2243 14.1492 42.4644 14.6476 41.2625 15.0687C37.2335 16.4805 32.8521 14.6608 30.9774 10.7973C30.5282 9.87145 30.2582 8.79839 30.1232 7.40217C30.0845 7.00269 29.9709 6.6328 29.8325 6.45631C29.3659 5.86124 28.2589 5.86124 27.7923 6.45631C27.6539 6.6328 27.5403 7.00269 27.5016 7.40217C27.2978 9.50985 26.7061 11.1022 25.6331 12.4301C23.8247 14.6678 20.8837 15.8604 18.1119 15.4798C14.1339 14.9337 11.1607 11.7967 10.8393 7.8066C10.7629 6.85706 10.6222 6.45171 10.2957 6.24069C9.9293 6.00388 9.63356 5.95668 9.21273 6.06777ZM29.3424 12.7986C29.8831 13.7315 31.3576 15.3234 32.3055 15.9977C33.6381 16.9457 35.0977 17.5447 36.8008 17.8426C38.44 18.1294 40.0135 18.0171 41.6464 17.4969L42.4924 17.2274L42.4282 17.5931C42.0457 19.7676 42.0937 21.7871 42.5851 24.1829C43.0671 26.5325 43.666 28.1662 45.4412 31.9739C47.1295 35.5957 47.8477 37.4872 48.1521 39.1144L48.2278 39.5193L47.0411 39.9761C45.3551 40.6252 43.6133 41.1913 43.5371 41.1149C43.5015 41.0791 43.5305 40.8177 43.6018 40.5339C43.8671 39.4766 43.709 38.8635 43.0955 38.5714C42.5711 38.3218 42.2622 38.3484 41.8281 38.6805C41.5252 38.9123 41.4274 39.0961 41.3229 39.6303C41.1447 40.541 40.7935 41.4001 40.4252 41.826C40.1498 42.1447 39.9669 42.2144 38.7392 42.4684C33.091 43.6372 26.4056 43.8102 20.9116 42.93C18.7932 42.5905 17.6397 42.3089 17.385 42.069C17.019 41.7238 16.5801 40.8404 16.4172 40.12C16.1669 39.0138 16.1215 38.9165 15.7326 38.6522C15.2832 38.3468 15.0361 38.3302 14.5293 38.5714C13.8889 38.8762 13.7496 39.5093 14.0628 40.6902C14.1544 41.0356 14.2128 41.3347 14.1926 41.355C14.1292 41.4187 11.1288 40.3396 10.2408 39.9336L9.3921 39.5457L9.47255 39.1134C9.74327 37.6577 10.6671 35.2309 12.1936 31.9653C14.3528 27.3466 15.0361 25.1878 15.3979 21.8421C15.5263 20.6539 15.4487 19.0095 15.1973 17.5931L15.1324 17.2274L15.9784 17.4969C17.6114 18.0171 19.1848 18.1294 20.8241 17.8426C22.5271 17.5447 23.9867 16.9457 25.3193 15.9977C26.2673 15.3234 27.7417 13.7315 28.2825 12.7986C28.5275 12.3757 28.7659 12.0299 28.8124 12.0299C28.8589 12.0299 29.0974 12.3757 29.3424 12.7986ZM28.0436 34.4882C27.5348 34.7409 27.091 35.4338 27.091 35.9756C27.091 36.8024 27.9882 37.7024 28.8124 37.7024C29.6366 37.7024 30.5338 36.8024 30.5338 35.9756C30.5338 35.4267 30.0883 34.7364 29.5726 34.4859C28.9576 34.1873 28.6488 34.1877 28.0436 34.4882Z" fill="#32CD32"/>
</g>
</svg>
